<?xml version="1.0" encoding="UTF-8" standalone="no"?>
<!-- Created with Inkscape (http://www.inkscape.org/) -->

<svg
   xmlns:dc="http://purl.org/dc/elements/1.1/"
   xmlns:cc="http://creativecommons.org/ns#"
   xmlns:rdf="http://www.w3.org/1999/02/22-rdf-syntax-ns#"
   xmlns:svg="http://www.w3.org/2000/svg"
   xmlns="http://www.w3.org/2000/svg"
   xmlns:sodipodi="http://sodipodi.sourceforge.net/DTD/sodipodi-0.dtd"
   xmlns:inkscape="http://www.inkscape.org/namespaces/inkscape"
   width="25.223259mm"
   height="25.223522mm"
   viewBox="0 0 25.223259 25.223522"
   version="1.1"
   id="svg8"
   sodipodi:docname="facebook.svg"
   inkscape:version="0.92.4 (f8dce91, 2019-08-02)">
  <defs
     id="defs2" />
  <sodipodi:namedview
     id="base"
     pagecolor="#ffffff"
     bordercolor="#666666"
     borderopacity="1.0"
     inkscape:pageopacity="0.0"
     inkscape:pageshadow="2"
     inkscape:zoom="0.35"
     inkscape:cx="-511.52319"
     inkscape:cy="-140.86009"
     inkscape:document-units="mm"
     inkscape:current-layer="layer1"
     showgrid="false"
     inkscape:window-width="1280"
     inkscape:window-height="692"
     inkscape:window-x="1366"
     inkscape:window-y="0"
     inkscape:window-maximized="1" />
  <metadata
     id="metadata5">
    <rdf:RDF>
      <cc:Work
         rdf:about="">
        <dc:format>image/svg+xml</dc:format>
        <dc:type
           rdf:resource="http://purl.org/dc/dcmitype/StillImage" />
        <dc:title></dc:title>
      </cc:Work>
    </rdf:RDF>
  </metadata>
  <g
     inkscape:label="Layer 1"
     inkscape:groupmode="layer"
     id="layer1"
     transform="translate(-69.78718,-174.01919)">
    <g
       id="g1052"
       transform="matrix(0.26458333,0,0,0.26458333,69.78718,174.01919)"
       style="fill:#333333;fill-opacity:1">
      <g
         id="g996"
         style="fill:#333333;fill-opacity:1">
	<path
   id="path994"
   d="M 93.333,0 H 2 C 0.896,0 0,0.896 0,2 v 91.332 c 0,1.104 0.896,2 2,2 H 50.525 V 63.477 H 40.284 c -0.885,0 -1.602,-0.717 -1.602,-1.602 V 48.961 c 0,-0.885 0.717,-1.603 1.602,-1.603 h 10.242 v -8.913 c 0,-11.744 7.395,-19.332 18.839,-19.332 l 10.188,0.016 c 0.883,10e-4 1.6,0.718 1.6,1.602 v 11.991 c 0,0.885 -0.717,1.602 -1.602,1.602 l -6.863,0.003 c -4.729,0 -5.595,1.844 -5.595,5.475 v 7.556 h 11.979 c 0.425,0 0.832,0.169 1.133,0.47 0.3,0.301 0.469,0.708 0.469,1.133 L 80.67,61.876 c 0,0.885 -0.717,1.603 -1.602,1.603 H 67.092 v 31.854 h 26.24 c 1.104,0 2,-0.896 2,-2 V 2 C 95.333,0.895 94.438,0 93.333,0 Z"
   inkscape:connector-curvature="0"
   style="fill:#333333;fill-opacity:1" />

</g>
      <g
         id="g998"
         style="fill:#333333;fill-opacity:1">
</g>
      <g
         id="g1000"
         style="fill:#333333;fill-opacity:1">
</g>
      <g
         id="g1002"
         style="fill:#333333;fill-opacity:1">
</g>
      <g
         id="g1004"
         style="fill:#333333;fill-opacity:1">
</g>
      <g
         id="g1006"
         style="fill:#333333;fill-opacity:1">
</g>
      <g
         id="g1008"
         style="fill:#333333;fill-opacity:1">
</g>
      <g
         id="g1010"
         style="fill:#333333;fill-opacity:1">
</g>
      <g
         id="g1012"
         style="fill:#333333;fill-opacity:1">
</g>
      <g
         id="g1014"
         style="fill:#333333;fill-opacity:1">
</g>
      <g
         id="g1016"
         style="fill:#333333;fill-opacity:1">
</g>
      <g
         id="g1018"
         style="fill:#333333;fill-opacity:1">
</g>
      <g
         id="g1020"
         style="fill:#333333;fill-opacity:1">
</g>
      <g
         id="g1022"
         style="fill:#333333;fill-opacity:1">
</g>
      <g
         id="g1024"
         style="fill:#333333;fill-opacity:1">
</g>
      <g
         id="g1026"
         style="fill:#333333;fill-opacity:1">
</g>
    </g>
  </g>
</svg>
